<svg width="24" height="24" viewBox="0 0 24 24" fill="none" xmlns="http://www.w3.org/2000/svg">
  <path d="M12 20.2C11.7 20.2 11.4 20.1 11.2 19.9C7.3 16.8 4.8 14.5 4.8 10.9C4.8 8.2 6.9 6.1 9.6 6.1C11 6.1 12.3 6.7 13.2 7.7C14.1 6.7 15.4 6.1 16.8 6.1C19.5 6.1 21.6 8.2 21.6 10.9C21.6 14.5 19.1 16.8 15.2 19.9C15 20.1 14.7 20.2 14.4 20.2H12Z" stroke="#222222" stroke-width="1.8" stroke-linejoin="round"/>
  <path d="M6 4.2V2.8" stroke="#222222" stroke-width="1.8" stroke-linecap="round"/>
  <path d="M3.3 6H1.9" stroke="#222222" stroke-width="1.8" stroke-linecap="round"/>
  <path d="M5 6L4 7" stroke="#222222" stroke-width="1.8" stroke-linecap="round"/>
  <path d="M18 5.2V3.8" stroke="#222222" stroke-width="1.8" stroke-linecap="round"/>
  <path d="M20.7 7H22.1" stroke="#222222" stroke-width="1.8" stroke-linecap="round"/>
  <path d="M19 7L20 8" stroke="#222222" stroke-width="1.8" stroke-linecap="round"/>
</svg>