<svg xmlns="http://www.w3.org/2000/svg" viewBox="0 0 512 512" width="512" height="512">
  <path d="M 471 28 L 446 12 L 406 0 L 383 0 L 338 15 L 310 37 L 293 61 L 272 137 L 211 95 L 150 69 L 104 66 L 75 84 L 65 110 L 67 144 L 82 187 L 111 238 L 68 255 L 37 280 L 13 316 L 0 360 L 0 388 L 10 425 L 42 473 L 100 507 L 160 511 L 197 500 L 232 477 L 258 445 L 275 402 L 324 430 L 370 446 L 409 447 L 434 434 L 448 403 L 444 362 L 421 307 L 376 241 L 434 228 L 459 216 L 489 189 L 504 163 L 511 138 L 509 89 L 497 59 Z M 124 300 L 145 299 L 162 303 L 210 351 L 214 368 L 213 389 L 209 402 L 202 415 L 190 429 L 178 438 L 166 444 L 152 448 L 135 449 L 122 447 L 112 444 L 97 436 L 77 416 L 69 401 L 65 386 L 64 378 L 65 361 L 72 340 L 79 329 L 88 319 L 98 311 L 109 305 Z M 125 258 L 140 277 L 105 284 L 80 298 L 57 324 L 45 355 L 43 376 L 49 407 L 62 431 L 78 448 L 101 462 L 126 469 L 152 469 L 175 463 L 199 449 L 217 430 L 229 408 L 236 373 L 255 388 L 249 416 L 228 451 L 196 477 L 159 490 L 126 491 L 110 488 L 88 480 L 70 469 L 41 439 L 30 418 L 23 394 L 24 349 L 32 325 L 43 306 L 62 285 L 80 272 Z M 98 91 L 110 86 L 132 86 L 161 94 L 209 118 L 261 155 L 226 190 L 220 202 L 219 215 L 240 254 L 270 281 L 294 293 L 311 293 L 320 289 L 357 252 L 398 309 L 424 368 L 427 403 L 423 414 L 415 422 L 403 427 L 371 425 L 319 404 L 247 355 L 183 295 L 138 240 L 100 176 L 86 131 L 86 110 L 90 99 Z M 360 342 L 352 345 L 349 347 L 345 352 L 342 360 L 342 367 L 346 376 L 353 382 L 358 384 L 368 384 L 375 381 L 381 375 L 384 368 L 384 358 L 382 353 L 376 346 L 370 343 Z M 145 129 L 138 132 L 132 138 L 129 145 L 129 155 L 131 160 L 137 167 L 146 171 L 153 171 L 161 168 L 164 166 L 168 161 L 171 153 L 171 146 L 167 137 L 160 131 L 155 129 Z M 448 37 L 473 61 L 484 80 L 490 100 L 491 130 L 485 154 L 473 175 L 455 193 L 435 205 L 408 213 L 379 216 L 359 225 L 336 242 L 308 272 L 297 272 L 269 254 L 250 232 L 241 216 L 240 208 L 271 177 L 288 154 L 296 137 L 300 105 L 306 83 L 324 53 L 347 34 L 359 28 L 383 22 L 418 24 Z M 401 45 L 396 44 L 395 43 L 393 43 L 392 44 L 383 44 L 382 45 L 378 45 L 377 46 L 371 47 L 368 49 L 366 49 L 358 53 L 349 59 L 337 71 L 330 81 L 327 87 L 327 89 L 325 92 L 324 98 L 322 102 L 322 107 L 321 108 L 321 121 L 326 127 L 328 128 L 335 128 L 339 125 L 341 122 L 341 119 L 342 118 L 342 109 L 343 108 L 343 105 L 344 104 L 344 101 L 346 98 L 346 96 L 353 85 L 363 75 L 375 68 L 377 68 L 384 65 L 399 64 L 403 61 L 405 58 L 405 50 Z" fill="#000" fill-rule="evenodd"/>
</svg>
