<svg width="24" height="24" viewBox="0 0 24 24" fill="none" xmlns="http://www.w3.org/2000/svg">
  <path d="M5 5.5C5 4.67157 5.67157 4 6.5 4H10.5C12.433 4 14 5.567 14 7.5V19C14 17.8954 13.1046 17 12 17H6.5C5.67157 17 5 17.6716 5 18.5V5.5Z" stroke="#222222" stroke-width="1.8" stroke-linejoin="round"/>
  <path d="M19 5.5C19 4.67157 18.3284 4 17.5 4H13.5C11.567 4 10 5.567 10 7.5V19C10 17.8954 10.8954 17 12 17H17.5C18.3284 17 19 17.6716 19 18.5V5.5Z" stroke="#222222" stroke-width="1.8" stroke-linejoin="round"/>
  <path d="M8 7.5H10.5" stroke="#222222" stroke-width="1.8" stroke-linecap="round"/>
  <path d="M13.5 7.5H16" stroke="#222222" stroke-width="1.8" stroke-linecap="round"/>
</svg>