<svg width="64" height="64" viewBox="0 0 64 64" fill="none" xmlns="http://www.w3.org/2000/svg">
  <path stroke="#000000" stroke-width="2" stroke-linejoin="round" d="M 32,22.8 A 9.2,9.2 0 1 0 32,41.2 A 9.2,9.2 0 1 0 32,22.8 Z M 29.7,13.6 L 34.3,13.6 L 36.025,19.35 A 13.8,13.8 0 0 1 40.05,21.075 L 45.225,17.05 L 48.1,20.5 L 43.5,25.675 A 13.8,13.8 0 0 1 45.225,29.7 L 50.4,30.85 L 50.4,35.45 L 45.225,36.6 A 13.8,13.8 0 0 1 43.5,40.625 L 48.1,45.8 L 44.65,49.25 L 40.05,45.225 A 13.8,13.8 0 0 1 36.025,46.95 L 34.3,52.7 L 29.7,52.7 L 27.975,46.95 A 13.8,13.8 0 0 1 23.95,45.225 L 18.775,49.25 L 15.9,45.8 L 20.5,40.625 A 13.8,13.8 0 0 1 18.775,36.6 L 13.6,35.45 L 13.6,30.85 L 18.775,29.7 A 13.8,13.8 0 0 1 20.5,25.675 L 15.9,20.5 L 19.35,17.05 L 23.95,21.075 A 13.8,13.8 0 0 1 27.975,19.35 Z" />
</svg>